<mxfile host="Electron" modified="2023-08-30T14:31:07.350Z" agent="Mozilla/5.0 (Windows NT 10.0; Win64; x64) AppleWebKit/537.36 (KHTML, like Gecko) draw.io/21.6.8 Chrome/114.0.5735.289 Electron/25.5.0 Safari/537.36" etag="xdVI_JKFB6AKS6FeEvn6" version="21.6.8" type="device" pages="2">
  <diagram id="egFVc7iN3EuXJCOQRw2U" name="Page-1">
    <mxGraphModel dx="794" dy="3238" grid="1" gridSize="10" guides="1" tooltips="1" connect="1" arrows="1" fold="1" page="1" pageScale="1" pageWidth="1654" pageHeight="2336" math="0" shadow="0">
      <root>
        <mxCell id="0" />
        <mxCell id="1" parent="0" />
        <mxCell id="IdnwRYRobFtbnjJPTMky-37" style="edgeStyle=orthogonalEdgeStyle;rounded=0;orthogonalLoop=1;jettySize=auto;html=1;exitX=0.5;exitY=1;exitDx=0;exitDy=0;entryX=0.5;entryY=0;entryDx=0;entryDy=0;" parent="1" source="IdnwRYRobFtbnjJPTMky-13" target="IdnwRYRobFtbnjJPTMky-19" edge="1">
          <mxGeometry relative="1" as="geometry" />
        </mxCell>
        <mxCell id="IdnwRYRobFtbnjJPTMky-55" style="edgeStyle=orthogonalEdgeStyle;rounded=0;orthogonalLoop=1;jettySize=auto;html=1;exitX=1;exitY=0.5;exitDx=0;exitDy=0;entryX=0.5;entryY=1;entryDx=0;entryDy=0;" parent="1" source="IdnwRYRobFtbnjJPTMky-13" target="IdnwRYRobFtbnjJPTMky-54" edge="1">
          <mxGeometry relative="1" as="geometry" />
        </mxCell>
        <mxCell id="IdnwRYRobFtbnjJPTMky-13" value="Exercise Runs" style="html=1;dashed=0;whitespace=wrap;shape=partialRectangle;right=0;comic=0;" parent="1" vertex="1">
          <mxGeometry x="650" y="424" width="100" height="30" as="geometry" />
        </mxCell>
        <mxCell id="IdnwRYRobFtbnjJPTMky-33" style="rounded=0;orthogonalLoop=1;jettySize=auto;html=1;exitX=0;exitY=0.5;exitDx=0;exitDy=0;entryX=1;entryY=0.5;entryDx=0;entryDy=0;" parent="1" target="IdnwRYRobFtbnjJPTMky-18" edge="1">
          <mxGeometry relative="1" as="geometry">
            <mxPoint x="840" y="294.99999999999955" as="sourcePoint" />
          </mxGeometry>
        </mxCell>
        <mxCell id="IdnwRYRobFtbnjJPTMky-24" style="edgeStyle=orthogonalEdgeStyle;rounded=0;orthogonalLoop=1;jettySize=auto;html=1;exitX=1;exitY=0.5;exitDx=0;exitDy=0;entryX=0;entryY=0.5;entryDx=0;entryDy=0;" parent="1" source="IdnwRYRobFtbnjJPTMky-15" target="IdnwRYRobFtbnjJPTMky-18" edge="1">
          <mxGeometry relative="1" as="geometry" />
        </mxCell>
        <mxCell id="IdnwRYRobFtbnjJPTMky-15" value="Exercises" style="html=1;dashed=0;whitespace=wrap;shape=partialRectangle;right=0;comic=0;" parent="1" vertex="1">
          <mxGeometry x="500" y="280" width="100" height="30" as="geometry" />
        </mxCell>
        <mxCell id="IdnwRYRobFtbnjJPTMky-31" style="edgeStyle=orthogonalEdgeStyle;rounded=0;orthogonalLoop=1;jettySize=auto;html=1;exitX=1;exitY=0.5;exitDx=0;exitDy=0;entryX=0;entryY=0;entryDx=0;entryDy=0;" parent="1" source="IdnwRYRobFtbnjJPTMky-16" target="IdnwRYRobFtbnjJPTMky-18" edge="1">
          <mxGeometry relative="1" as="geometry" />
        </mxCell>
        <mxCell id="IdnwRYRobFtbnjJPTMky-16" value="Exercise Steps" style="html=1;dashed=0;whitespace=wrap;shape=partialRectangle;right=0;comic=0;" parent="1" vertex="1">
          <mxGeometry x="500" y="155" width="100" height="30" as="geometry" />
        </mxCell>
        <mxCell id="IdnwRYRobFtbnjJPTMky-17" value="User Answers" style="html=1;dashed=0;whitespace=wrap;shape=partialRectangle;right=0;comic=0;" parent="1" vertex="1">
          <mxGeometry x="500" y="382" width="100" height="30" as="geometry" />
        </mxCell>
        <mxCell id="IdnwRYRobFtbnjJPTMky-32" value="Unmarked answers" style="edgeStyle=orthogonalEdgeStyle;rounded=0;orthogonalLoop=1;jettySize=auto;html=1;exitX=0;exitY=1;exitDx=0;exitDy=0;entryX=0.5;entryY=0;entryDx=0;entryDy=0;" parent="1" source="IdnwRYRobFtbnjJPTMky-18" target="IdnwRYRobFtbnjJPTMky-17" edge="1">
          <mxGeometry relative="1" as="geometry" />
        </mxCell>
        <mxCell id="IdnwRYRobFtbnjJPTMky-35" style="edgeStyle=orthogonalEdgeStyle;rounded=0;orthogonalLoop=1;jettySize=auto;html=1;exitX=0.5;exitY=1;exitDx=0;exitDy=0;entryX=0.5;entryY=0;entryDx=0;entryDy=0;" parent="1" source="IdnwRYRobFtbnjJPTMky-18" target="IdnwRYRobFtbnjJPTMky-13" edge="1">
          <mxGeometry relative="1" as="geometry" />
        </mxCell>
        <mxCell id="IdnwRYRobFtbnjJPTMky-18" value="Pass an&lt;br&gt;exercise" style="shape=ellipse;html=1;dashed=0;whitespace=wrap;aspect=fixed;perimeter=ellipsePerimeter;comic=0;" parent="1" vertex="1">
          <mxGeometry x="640" y="235" width="120" height="120" as="geometry" />
        </mxCell>
        <mxCell id="IdnwRYRobFtbnjJPTMky-40" style="edgeStyle=orthogonalEdgeStyle;rounded=0;orthogonalLoop=1;jettySize=auto;html=1;exitX=1;exitY=0.5;exitDx=0;exitDy=0;entryX=0;entryY=0.5;entryDx=0;entryDy=0;" parent="1" source="IdnwRYRobFtbnjJPTMky-19" target="IdnwRYRobFtbnjJPTMky-39" edge="1">
          <mxGeometry relative="1" as="geometry" />
        </mxCell>
        <mxCell id="IdnwRYRobFtbnjJPTMky-19" value="Get an achievement" style="shape=ellipse;html=1;dashed=0;whitespace=wrap;aspect=fixed;perimeter=ellipsePerimeter;comic=0;" parent="1" vertex="1">
          <mxGeometry x="640" y="470" width="120" height="120" as="geometry" />
        </mxCell>
        <mxCell id="IdnwRYRobFtbnjJPTMky-39" value="User Achievements" style="html=1;dashed=0;whitespace=wrap;shape=partialRectangle;right=0;comic=0;" parent="1" vertex="1">
          <mxGeometry x="827" y="515" width="100" height="30" as="geometry" />
        </mxCell>
        <mxCell id="IdnwRYRobFtbnjJPTMky-45" style="edgeStyle=orthogonalEdgeStyle;rounded=0;orthogonalLoop=1;jettySize=auto;html=1;exitX=1;exitY=0.5;exitDx=0;exitDy=0;entryX=0;entryY=0.5;entryDx=0;entryDy=0;" parent="1" source="IdnwRYRobFtbnjJPTMky-41" target="IdnwRYRobFtbnjJPTMky-54" edge="1">
          <mxGeometry relative="1" as="geometry">
            <mxPoint x="700" y="40" as="targetPoint" />
          </mxGeometry>
        </mxCell>
        <mxCell id="IdnwRYRobFtbnjJPTMky-41" value="Exercise Schedules" style="html=1;dashed=0;whitespace=wrap;shape=partialRectangle;right=0;comic=0;" parent="1" vertex="1">
          <mxGeometry x="495" y="25" width="110" height="30" as="geometry" />
        </mxCell>
        <mxCell id="IdnwRYRobFtbnjJPTMky-56" style="edgeStyle=orthogonalEdgeStyle;rounded=0;orthogonalLoop=1;jettySize=auto;html=1;exitX=0;exitY=1;exitDx=0;exitDy=0;entryX=0.5;entryY=0;entryDx=0;entryDy=0;" parent="1" source="IdnwRYRobFtbnjJPTMky-54" target="IdnwRYRobFtbnjJPTMky-18" edge="1">
          <mxGeometry relative="1" as="geometry" />
        </mxCell>
        <mxCell id="IdnwRYRobFtbnjJPTMky-54" value="Check exercise&lt;br&gt;availability" style="shape=ellipse;html=1;dashed=0;whitespace=wrap;aspect=fixed;perimeter=ellipsePerimeter;comic=0;" parent="1" vertex="1">
          <mxGeometry x="730" y="-20" width="120" height="120" as="geometry" />
        </mxCell>
        <mxCell id="IdnwRYRobFtbnjJPTMky-57" value="User" style="html=1;dashed=0;whitespace=wrap;comic=0;" parent="1" vertex="1">
          <mxGeometry x="840" y="270" width="100" height="50" as="geometry" />
        </mxCell>
      </root>
    </mxGraphModel>
  </diagram>
  <diagram name="Page2" id="059eYQ5pcpDcIqxz_QkA">
    <mxGraphModel dx="794" dy="3238" grid="1" gridSize="10" guides="1" tooltips="1" connect="1" arrows="1" fold="1" page="1" pageScale="1" pageWidth="1654" pageHeight="2336" math="0" shadow="0">
      <root>
        <mxCell id="hlHZM1XapuOYtKjsoRlF-0" />
        <mxCell id="hlHZM1XapuOYtKjsoRlF-1" parent="hlHZM1XapuOYtKjsoRlF-0" />
        <mxCell id="hlHZM1XapuOYtKjsoRlF-7" value="Exercises" style="html=1;dashed=0;whitespace=wrap;shape=partialRectangle;right=0;comic=0;" vertex="1" parent="hlHZM1XapuOYtKjsoRlF-1">
          <mxGeometry x="500" y="280" width="100" height="30" as="geometry" />
        </mxCell>
        <mxCell id="hlHZM1XapuOYtKjsoRlF-9" value="Exercise Steps" style="html=1;dashed=0;whitespace=wrap;shape=partialRectangle;right=0;comic=0;" vertex="1" parent="hlHZM1XapuOYtKjsoRlF-1">
          <mxGeometry x="500" y="155" width="100" height="30" as="geometry" />
        </mxCell>
        <mxCell id="hlHZM1XapuOYtKjsoRlF-10" style="edgeStyle=orthogonalEdgeStyle;rounded=0;orthogonalLoop=1;jettySize=auto;html=1;exitX=0;exitY=0.5;exitDx=0;exitDy=0;entryX=1;entryY=0;entryDx=0;entryDy=0;" edge="1" parent="hlHZM1XapuOYtKjsoRlF-1" source="hlHZM1XapuOYtKjsoRlF-11" target="hlHZM1XapuOYtKjsoRlF-32">
          <mxGeometry relative="1" as="geometry" />
        </mxCell>
        <mxCell id="hlHZM1XapuOYtKjsoRlF-11" value="User Answers" style="html=1;dashed=0;whitespace=wrap;shape=partialRectangle;right=0;comic=0;" vertex="1" parent="hlHZM1XapuOYtKjsoRlF-1">
          <mxGeometry x="500" y="382" width="100" height="30" as="geometry" />
        </mxCell>
        <mxCell id="hlHZM1XapuOYtKjsoRlF-17" style="edgeStyle=orthogonalEdgeStyle;rounded=0;orthogonalLoop=1;jettySize=auto;html=1;exitX=1;exitY=0.5;exitDx=0;exitDy=0;entryX=0;entryY=0.5;entryDx=0;entryDy=0;" edge="1" parent="hlHZM1XapuOYtKjsoRlF-1" source="hlHZM1XapuOYtKjsoRlF-18" target="hlHZM1XapuOYtKjsoRlF-7">
          <mxGeometry relative="1" as="geometry" />
        </mxCell>
        <mxCell id="hlHZM1XapuOYtKjsoRlF-18" value="Create/Modify/Delete&lt;br&gt;Exercise" style="shape=ellipse;html=1;dashed=0;whitespace=wrap;aspect=fixed;perimeter=ellipsePerimeter;comic=0;" vertex="1" parent="hlHZM1XapuOYtKjsoRlF-1">
          <mxGeometry x="310" y="235" width="120" height="120" as="geometry" />
        </mxCell>
        <mxCell id="hlHZM1XapuOYtKjsoRlF-19" style="edgeStyle=orthogonalEdgeStyle;rounded=0;orthogonalLoop=1;jettySize=auto;html=1;exitX=1;exitY=0.5;exitDx=0;exitDy=0;entryX=0;entryY=0.5;entryDx=0;entryDy=0;" edge="1" parent="hlHZM1XapuOYtKjsoRlF-1" source="hlHZM1XapuOYtKjsoRlF-23" target="hlHZM1XapuOYtKjsoRlF-18">
          <mxGeometry relative="1" as="geometry" />
        </mxCell>
        <mxCell id="hlHZM1XapuOYtKjsoRlF-20" style="edgeStyle=orthogonalEdgeStyle;rounded=0;orthogonalLoop=1;jettySize=auto;html=1;exitX=1;exitY=0.25;exitDx=0;exitDy=0;entryX=0;entryY=0.5;entryDx=0;entryDy=0;" edge="1" parent="hlHZM1XapuOYtKjsoRlF-1" source="hlHZM1XapuOYtKjsoRlF-23" target="hlHZM1XapuOYtKjsoRlF-25">
          <mxGeometry relative="1" as="geometry" />
        </mxCell>
        <mxCell id="hlHZM1XapuOYtKjsoRlF-21" style="edgeStyle=orthogonalEdgeStyle;rounded=0;orthogonalLoop=1;jettySize=auto;html=1;exitX=0.75;exitY=0;exitDx=0;exitDy=0;entryX=0;entryY=0.5;entryDx=0;entryDy=0;" edge="1" parent="hlHZM1XapuOYtKjsoRlF-1" source="hlHZM1XapuOYtKjsoRlF-23" target="hlHZM1XapuOYtKjsoRlF-30">
          <mxGeometry relative="1" as="geometry" />
        </mxCell>
        <mxCell id="hlHZM1XapuOYtKjsoRlF-22" style="edgeStyle=orthogonalEdgeStyle;rounded=0;orthogonalLoop=1;jettySize=auto;html=1;exitX=0.75;exitY=1;exitDx=0;exitDy=0;entryX=0;entryY=0.5;entryDx=0;entryDy=0;" edge="1" parent="hlHZM1XapuOYtKjsoRlF-1" source="hlHZM1XapuOYtKjsoRlF-23" target="hlHZM1XapuOYtKjsoRlF-32">
          <mxGeometry relative="1" as="geometry" />
        </mxCell>
        <mxCell id="hlHZM1XapuOYtKjsoRlF-23" value="Trainer" style="html=1;dashed=0;whitespace=wrap;comic=0;" vertex="1" parent="hlHZM1XapuOYtKjsoRlF-1">
          <mxGeometry x="140" y="270" width="100" height="50" as="geometry" />
        </mxCell>
        <mxCell id="hlHZM1XapuOYtKjsoRlF-24" style="edgeStyle=orthogonalEdgeStyle;rounded=0;orthogonalLoop=1;jettySize=auto;html=1;exitX=1;exitY=0.5;exitDx=0;exitDy=0;entryX=0;entryY=0.5;entryDx=0;entryDy=0;" edge="1" parent="hlHZM1XapuOYtKjsoRlF-1" source="hlHZM1XapuOYtKjsoRlF-25" target="hlHZM1XapuOYtKjsoRlF-9">
          <mxGeometry relative="1" as="geometry" />
        </mxCell>
        <mxCell id="hlHZM1XapuOYtKjsoRlF-25" value="Create/Modify/Delete&lt;br&gt;Exercise Steps" style="shape=ellipse;html=1;dashed=0;whitespace=wrap;aspect=fixed;perimeter=ellipsePerimeter;comic=0;" vertex="1" parent="hlHZM1XapuOYtKjsoRlF-1">
          <mxGeometry x="310" y="110" width="120" height="120" as="geometry" />
        </mxCell>
        <mxCell id="hlHZM1XapuOYtKjsoRlF-28" value="Exercise Schedules" style="html=1;dashed=0;whitespace=wrap;shape=partialRectangle;right=0;comic=0;" vertex="1" parent="hlHZM1XapuOYtKjsoRlF-1">
          <mxGeometry x="495" y="25" width="110" height="30" as="geometry" />
        </mxCell>
        <mxCell id="hlHZM1XapuOYtKjsoRlF-29" style="edgeStyle=orthogonalEdgeStyle;rounded=0;orthogonalLoop=1;jettySize=auto;html=1;exitX=1;exitY=0.5;exitDx=0;exitDy=0;entryX=0;entryY=0.5;entryDx=0;entryDy=0;" edge="1" parent="hlHZM1XapuOYtKjsoRlF-1" source="hlHZM1XapuOYtKjsoRlF-30" target="hlHZM1XapuOYtKjsoRlF-28">
          <mxGeometry relative="1" as="geometry" />
        </mxCell>
        <mxCell id="hlHZM1XapuOYtKjsoRlF-30" value="Set Exercise&lt;br&gt;Schedules" style="shape=ellipse;html=1;dashed=0;whitespace=wrap;aspect=fixed;perimeter=ellipsePerimeter;comic=0;" vertex="1" parent="hlHZM1XapuOYtKjsoRlF-1">
          <mxGeometry x="310" y="-20" width="120" height="120" as="geometry" />
        </mxCell>
        <mxCell id="hlHZM1XapuOYtKjsoRlF-32" value="Mark answers" style="shape=ellipse;html=1;dashed=0;whitespace=wrap;aspect=fixed;perimeter=ellipsePerimeter;comic=0;" vertex="1" parent="hlHZM1XapuOYtKjsoRlF-1">
          <mxGeometry x="310" y="380" width="120" height="120" as="geometry" />
        </mxCell>
        <mxCell id="K5yzFZaFVetBCTF30Y3l-0" value="Exercise Runs" style="html=1;dashed=0;whitespace=wrap;shape=partialRectangle;right=0;comic=0;" vertex="1" parent="hlHZM1XapuOYtKjsoRlF-1">
          <mxGeometry x="650" y="424" width="100" height="30" as="geometry" />
        </mxCell>
        <mxCell id="K5yzFZaFVetBCTF30Y3l-1" style="edgeStyle=orthogonalEdgeStyle;rounded=0;orthogonalLoop=1;jettySize=auto;html=1;exitX=1;exitY=0.5;exitDx=0;exitDy=0;entryX=0;entryY=0.5;entryDx=0;entryDy=0;" edge="1" parent="hlHZM1XapuOYtKjsoRlF-1" target="K5yzFZaFVetBCTF30Y3l-0">
          <mxGeometry relative="1" as="geometry">
            <mxPoint x="430" y="440" as="sourcePoint" />
          </mxGeometry>
        </mxCell>
      </root>
    </mxGraphModel>
  </diagram>
</mxfile>
